<svg width="26" height="17" viewBox="0 0 26 17" fill="none" xmlns="http://www.w3.org/2000/svg">
<path d="M10.1111 15.5833C10.1111 16.3657 10.7454 17 11.5278 17H14.4722C15.2546 17 15.8889 16.3657 15.8889 15.5833C15.8889 14.8009 15.2546 14.1667 14.4722 14.1667H11.5278C10.7454 14.1667 10.1111 14.8009 10.1111 15.5833ZM1.41667 0C0.634263 0 0 0.634263 0 1.41667C0 2.19907 0.634263 2.83333 1.41667 2.83333H24.5833C25.3657 2.83333 26 2.19907 26 1.41667C26 0.634263 25.3657 0 24.5833 0H1.41667ZM4.33333 8.5C4.33333 9.2824 4.9676 9.91667 5.75 9.91667H20.25C21.0324 9.91667 21.6667 9.2824 21.6667 8.5C21.6667 7.7176 21.0324 7.08333 20.25 7.08333H5.75C4.9676 7.08333 4.33333 7.7176 4.33333 8.5Z" fill="#BDBDC7"/>
</svg>
