<svg width="30" height="29" viewBox="0 0 30 29" fill="none" xmlns="http://www.w3.org/2000/svg">
<path d="M17.7735 0.848999C16.094 -0.270665 13.906 -0.270664 12.2265 0.849L2.2265 7.51567C0.835505 8.443 0 10.0042 0 11.6759V24.3125C0 26.9013 2.09867 29 4.6875 29V29C7.27633 29 9.375 26.9013 9.375 24.3125V22.3333C9.375 19.5719 11.6136 17.3333 14.375 17.3333H15.625C18.3864 17.3333 20.625 19.5719 20.625 22.3333V24.3125C20.625 26.9013 22.7237 29 25.3125 29V29C27.9013 29 30 26.9013 30 24.3125V11.6759C30 10.0042 29.1645 8.443 27.7735 7.51567L17.7735 0.848999Z" fill="white"/>
</svg>
