<svg width="21" height="20" viewBox="0 0 21 20" fill="none" xmlns="http://www.w3.org/2000/svg">
<path d="M9.54806 16.9999C10.142 16.6785 10.858 16.6785 11.4519 16.9999L14.7972 18.8104C16.3349 19.6426 18.125 18.24 17.6847 16.5479L16.9607 13.7649C16.7594 12.9913 17.0381 12.1722 17.6693 11.6819L19.9057 9.94463C21.3505 8.82232 20.6547 6.50972 18.8305 6.37094L15.453 6.114C14.7362 6.05947 14.1038 5.62439 13.7966 4.97443L12.3082 1.82553C11.5864 0.298417 9.41362 0.298416 8.69181 1.82553L7.20344 4.97443C6.89622 5.62439 6.2638 6.05947 5.54696 6.114L2.16947 6.37094C0.345254 6.50972 -0.350531 8.82232 1.09426 9.94463L3.33067 11.6819C3.96191 12.1722 4.24057 12.9913 4.03932 13.7649L3.31527 16.5479C2.87505 18.24 4.66509 19.6426 6.20278 18.8104L9.54806 16.9999Z" fill="#FAC945"/>
</svg>
